<?xml version="1.0" standalone="no"?>
<!DOCTYPE svg PUBLIC "-//W3C//DTD SVG 20010904//EN"
 "http://www.w3.org/TR/2001/REC-SVG-20010904/DTD/svg10.dtd">
<svg version="1.0" xmlns="http://www.w3.org/2000/svg"
 width="320.000000pt" height="320.000000pt" viewBox="0 0 320.000000 320.000000"
 preserveAspectRatio="xMidYMid meet">
<metadata>
Created by potrace 1.14, written by Peter Selinger 2001-2017
</metadata>
<g transform="translate(0.000000,320.000000) scale(0.100000,-0.100000)"
fill="#000000" stroke="none">
<path d="M1370 3053 c-113 -69 -218 -133 -235 -143 -71 -41 -348 -211 -372
-228 l-25 -18 -1 -307 c0 -348 -8 -316 88 -371 28 -16 112 -67 188 -114 l137
-84 0 -79 c0 -71 -2 -79 -22 -90 -51 -27 -78 -88 -64 -143 8 -31 54 -86 72
-86 12 0 14 -37 14 -215 0 -118 -2 -215 -5 -215 -14 0 -285 173 -280 179 4 3
43 29 87 56 92 57 109 76 92 103 -6 9 -18 18 -27 20 -8 2 -74 -34 -146 -79
-129 -80 -131 -82 -132 -118 0 -54 0 -542 0 -571 1 -20 14 -33 58 -60 32 -19
62 -37 68 -39 5 -2 12 -7 15 -10 3 -3 17 -13 32 -21 15 -8 76 -45 135 -81 388
-237 547 -330 559 -325 8 3 142 83 297 177 155 95 336 205 402 245 66 40 127
77 135 82 12 8 15 55 15 311 0 166 -3 310 -7 320 -5 16 -32 35 -137 96 -9 6
-40 25 -67 43 -28 17 -58 32 -67 32 -16 0 -37 -28 -37 -49 0 -6 43 -39 95 -72
52 -34 95 -64 94 -67 0 -6 -257 -163 -279 -170 -6 -2 -10 77 -10 205 l0 208
36 20 c91 49 88 181 -4 225 -31 15 -32 16 -32 91 l0 76 122 74 c68 41 145 89
173 107 27 18 62 38 77 45 15 6 32 23 37 37 10 29 9 600 -2 617 -6 9 -343 219
-432 269 -11 6 -98 59 -194 118 -95 58 -178 106 -182 106 -5 0 -9 5 -9 10 0
32 -70 0 -260 -117z m-81 -1349 l61 -36 0 -159 0 -158 -29 -15 c-83 -43 -87
-170 -6 -217 31 -19 35 -25 35 -64 0 -35 -4 -45 -20 -50 -25 -8 -71 -67 -73
-93 -1 -16 -5 -19 -19 -11 -17 9 -18 29 -18 244 l0 234 27 13 c44 22 68 64 67
116 0 56 -23 95 -64 112 -28 12 -30 16 -30 66 0 30 2 54 4 54 3 0 32 -16 65
-36z m681 -18 c0 -46 -3 -56 -25 -70 -71 -47 -77 -151 -12 -208 11 -10 24 -18
29 -18 4 0 8 -107 8 -239 l0 -238 -40 -27 c-22 -14 -43 -26 -46 -26 -4 0 -16
-7 -25 -16 -17 -16 -22 -13 -81 44 -35 33 -82 78 -105 100 l-43 40 0 254 0
255 59 37 c32 20 61 36 63 36 2 0 3 -67 3 -150 1 -102 -3 -150 -10 -150 -16 0
-62 -51 -74 -82 -30 -79 35 -168 122 -168 131 0 177 173 64 240 l-32 19 1 166
c0 91 4 168 8 173 12 12 120 81 129 81 4 1 7 -23 7 -53z m-497 -93 c23 -15 51
-32 62 -38 44 -23 36 -119 -15 -161 -18 -15 -38 -34 -46 -42 -8 -7 -22 -12
-32 -10 -15 3 -17 19 -20 141 -2 75 0 137 3 137 3 0 24 -12 48 -27z m88 -434
l-1 -162 48 -45 c108 -101 162 -155 162 -161 -1 -9 -159 -101 -175 -101 -8 0
-44 19 -80 42 -64 40 -66 42 -47 57 51 41 59 122 18 176 -14 19 -35 37 -46 40
-16 5 -20 15 -20 48 0 36 4 44 30 59 38 22 70 89 63 132 -3 17 -6 33 -8 35 -2
2 8 14 22 27 14 13 28 22 31 20 2 -3 3 -78 3 -167z"/>
</g>
</svg>
